<mxfile host="65bd71144e">
    <diagram id="IjiTmnJwu6j2XZqDibwr" name="Page-1">
        <mxGraphModel dx="1689" dy="912" grid="1" gridSize="10" guides="1" tooltips="1" connect="1" arrows="1" fold="1" page="1" pageScale="1" pageWidth="850" pageHeight="1100" math="0" shadow="0">
            <root>
                <mxCell id="0"/>
                <mxCell id="1" parent="0"/>
                <mxCell id="22" value="" style="edgeStyle=none;html=1;" parent="1" edge="1">
                    <mxGeometry relative="1" as="geometry">
                        <mxPoint x="581.36" y="160" as="sourcePoint"/>
                        <mxPoint x="581.11" y="200" as="targetPoint"/>
                    </mxGeometry>
                </mxCell>
                <mxCell id="35" value="" style="edgeStyle=none;html=1;fontSize=18;" parent="1" source="2" target="34" edge="1">
                    <mxGeometry relative="1" as="geometry"/>
                </mxCell>
                <mxCell id="2" value="Start" style="ellipse;whiteSpace=wrap;html=1;" parent="1" vertex="1">
                    <mxGeometry x="543.36" y="30" width="75" height="50" as="geometry"/>
                </mxCell>
                <mxCell id="7" value="" style="edgeStyle=none;html=1;" parent="1" source="3" target="6" edge="1">
                    <mxGeometry relative="1" as="geometry"/>
                </mxCell>
                <mxCell id="3" value="Leer&lt;br&gt;&lt;span style=&quot;font-weight: normal;&quot;&gt;dir_name&lt;/span&gt;" style="shape=parallelogram;perimeter=parallelogramPerimeter;whiteSpace=wrap;html=1;fixedSize=1;size=10.000000000000227;fontStyle=1" parent="1" vertex="1">
                    <mxGeometry x="84.5" y="450" width="120" height="60" as="geometry"/>
                </mxCell>
                <mxCell id="9" value="" style="edgeStyle=none;html=1;entryX=0.542;entryY=-0.011;entryDx=0;entryDy=0;entryPerimeter=0;" parent="1" source="6" target="8" edge="1">
                    <mxGeometry relative="1" as="geometry">
                        <Array as="points">
                            <mxPoint x="274.5" y="590"/>
                        </Array>
                    </mxGeometry>
                </mxCell>
                <mxCell id="38" style="edgeStyle=none;html=1;entryX=0.5;entryY=0;entryDx=0;entryDy=0;fontSize=12;" parent="1" source="6" target="10" edge="1">
                    <mxGeometry relative="1" as="geometry">
                        <Array as="points">
                            <mxPoint x="24.5" y="590"/>
                        </Array>
                    </mxGeometry>
                </mxCell>
                <mxCell id="6" value="dir_name &lt;br&gt;+=&lt;br&gt;null" style="rhombus;whiteSpace=wrap;html=1;" parent="1" vertex="1">
                    <mxGeometry x="87.25" y="530" width="114.5" height="120" as="geometry"/>
                </mxCell>
                <mxCell id="16" style="edgeStyle=none;html=1;entryX=1;entryY=0.5;entryDx=0;entryDy=0;exitX=0.542;exitY=1.002;exitDx=0;exitDy=0;exitPerimeter=0;" parent="1" source="8" target="40" edge="1">
                    <mxGeometry relative="1" as="geometry">
                        <mxPoint x="207.25" y="839.9999999999998" as="targetPoint"/>
                        <Array as="points">
                            <mxPoint x="277.75" y="840"/>
                        </Array>
                    </mxGeometry>
                </mxCell>
                <mxCell id="8" value="msj = &lt;br&gt;&quot;Las imÃ¡gemes son: &quot;+imagenes[]" style="whiteSpace=wrap;html=1;" parent="1" vertex="1">
                    <mxGeometry x="207.25" y="690" width="130" height="60" as="geometry"/>
                </mxCell>
                <mxCell id="15" value="" style="edgeStyle=none;html=1;entryX=0;entryY=0.5;entryDx=0;entryDy=0;exitX=0.5;exitY=1;exitDx=0;exitDy=0;" parent="1" source="10" target="40" edge="1">
                    <mxGeometry relative="1" as="geometry">
                        <mxPoint x="-58.25" y="749.9999999999998" as="sourcePoint"/>
                        <mxPoint x="87.25" y="839.9999999999998" as="targetPoint"/>
                        <Array as="points">
                            <mxPoint x="24.5" y="840"/>
                        </Array>
                    </mxGeometry>
                </mxCell>
                <mxCell id="19" value="Fin" style="ellipse;whiteSpace=wrap;html=1;" parent="1" vertex="1">
                    <mxGeometry x="109.75" y="930" width="75" height="50" as="geometry"/>
                </mxCell>
                <mxCell id="24" style="edgeStyle=none;html=1;entryX=0.5;entryY=0;entryDx=0;entryDy=0;" parent="1" target="23" edge="1">
                    <mxGeometry relative="1" as="geometry">
                        <Array as="points">
                            <mxPoint x="206.75" y="240"/>
                            <mxPoint x="145" y="240"/>
                        </Array>
                        <mxPoint x="521.75" y="240" as="sourcePoint"/>
                    </mxGeometry>
                </mxCell>
                <mxCell id="26" value="" style="edgeStyle=none;html=1;exitX=0.5;exitY=1;exitDx=0;exitDy=0;" parent="1" target="25" edge="1">
                    <mxGeometry relative="1" as="geometry">
                        <Array as="points"/>
                        <mxPoint x="581.75" y="280" as="sourcePoint"/>
                    </mxGeometry>
                </mxCell>
                <mxCell id="31" value="" style="edgeStyle=none;html=1;fontSize=18;" parent="1" edge="1">
                    <mxGeometry relative="1" as="geometry">
                        <mxPoint x="819.9999999999998" y="350" as="targetPoint"/>
                        <Array as="points">
                            <mxPoint x="820" y="240"/>
                        </Array>
                        <mxPoint x="640" y="240" as="sourcePoint"/>
                    </mxGeometry>
                </mxCell>
                <mxCell id="29" value="" style="edgeStyle=none;html=1;fontSize=18;entryX=0.5;entryY=0;entryDx=0;entryDy=0;" parent="1" source="23" target="3" edge="1">
                    <mxGeometry relative="1" as="geometry">
                        <mxPoint x="147.5" y="440" as="targetPoint"/>
                    </mxGeometry>
                </mxCell>
                <mxCell id="23" value="Obtener lista de archivos de directorio" style="whiteSpace=wrap;html=1;" parent="1" vertex="1">
                    <mxGeometry x="84.5" y="360" width="120" height="60" as="geometry"/>
                </mxCell>
                <mxCell id="43" value="" style="edgeStyle=none;html=1;fontSize=12;" parent="1" source="25" target="42" edge="1">
                    <mxGeometry relative="1" as="geometry"/>
                </mxCell>
                <mxCell id="25" value="agregar marca de agua a archivo" style="whiteSpace=wrap;html=1;" parent="1" vertex="1">
                    <mxGeometry x="521.75" y="350" width="120" height="60" as="geometry"/>
                </mxCell>
                <mxCell id="roUxp3HFP8F-yuzGw5za-48" style="edgeStyle=orthogonalEdgeStyle;rounded=0;orthogonalLoop=1;jettySize=auto;html=1;exitX=0.5;exitY=1;exitDx=0;exitDy=0;entryX=1;entryY=0.5;entryDx=0;entryDy=0;" parent="1" source="33" target="19" edge="1">
                    <mxGeometry relative="1" as="geometry"/>
                </mxCell>
                <mxCell id="33" value="&lt;span style=&quot;font-size: 12px;&quot;&gt;cerrar programa&lt;/span&gt;" style="shape=parallelogram;perimeter=parallelogramPerimeter;whiteSpace=wrap;html=1;fixedSize=1;fontSize=18;" parent="1" vertex="1">
                    <mxGeometry x="760" y="350" width="120" height="60" as="geometry"/>
                </mxCell>
                <mxCell id="34" value="&lt;font style=&quot;font-size: 12px;&quot;&gt;Lectura de menu&lt;br&gt;&lt;/font&gt;" style="shape=parallelogram;perimeter=parallelogramPerimeter;whiteSpace=wrap;html=1;fixedSize=1;fontSize=18;" parent="1" vertex="1">
                    <mxGeometry x="520.86" y="110" width="120" height="60" as="geometry"/>
                </mxCell>
                <mxCell id="37" style="edgeStyle=none;html=1;fontSize=12;" parent="1" source="10" edge="1">
                    <mxGeometry relative="1" as="geometry">
                        <mxPoint x="14" y="699.9999999999998" as="targetPoint"/>
                    </mxGeometry>
                </mxCell>
                <mxCell id="10" value="msj = &lt;br&gt;&quot;Directorio no existe&quot;" style="whiteSpace=wrap;html=1;" parent="1" vertex="1">
                    <mxGeometry x="-40" y="690" width="130" height="60" as="geometry"/>
                </mxCell>
                <mxCell id="41" value="" style="edgeStyle=none;html=1;fontSize=12;" parent="1" source="40" target="19" edge="1">
                    <mxGeometry relative="1" as="geometry"/>
                </mxCell>
                <mxCell id="40" value="&lt;b&gt;Imprimir&lt;br&gt;msj&lt;/b&gt;" style="shape=parallelogram;perimeter=parallelogramPerimeter;whiteSpace=wrap;html=1;fixedSize=1;fontSize=12;" parent="1" vertex="1">
                    <mxGeometry x="84.5" y="810" width="120" height="60" as="geometry"/>
                </mxCell>
                <mxCell id="pkpLJFI0L02xDPb_ya9f-51" style="edgeStyle=orthogonalEdgeStyle;rounded=0;orthogonalLoop=1;jettySize=auto;html=1;exitX=0.5;exitY=1;exitDx=0;exitDy=0;entryX=0.5;entryY=0;entryDx=0;entryDy=0;" parent="1" source="42" target="46" edge="1">
                    <mxGeometry relative="1" as="geometry"/>
                </mxCell>
                <mxCell id="42" value="Leer nombre de archivo y&lt;br&gt;ruta de directorio" style="shape=parallelogram;perimeter=parallelogramPerimeter;whiteSpace=wrap;html=1;fixedSize=1;size=10.000000000000227;fontStyle=1" parent="1" vertex="1">
                    <mxGeometry x="495.87" y="440" width="168.25" height="60" as="geometry"/>
                </mxCell>
                <mxCell id="46" value="tipo de marca de agua" style="rhombus;whiteSpace=wrap;html=1;" parent="1" vertex="1">
                    <mxGeometry x="522.74" y="530" width="114.5" height="120" as="geometry"/>
                </mxCell>
                <mxCell id="roUxp3HFP8F-yuzGw5za-51" value="1" style="text;html=1;strokeColor=none;fillColor=none;align=center;verticalAlign=middle;whiteSpace=wrap;rounded=0;" parent="1" vertex="1">
                    <mxGeometry x="124.75" y="330" width="60" height="30" as="geometry"/>
                </mxCell>
                <mxCell id="roUxp3HFP8F-yuzGw5za-52" value="2" style="text;html=1;strokeColor=none;fillColor=none;align=center;verticalAlign=middle;whiteSpace=wrap;rounded=0;" parent="1" vertex="1">
                    <mxGeometry x="570" y="320" width="60" height="30" as="geometry"/>
                </mxCell>
                <mxCell id="roUxp3HFP8F-yuzGw5za-53" value="0" style="text;html=1;strokeColor=none;fillColor=none;align=center;verticalAlign=middle;whiteSpace=wrap;rounded=0;" parent="1" vertex="1">
                    <mxGeometry x="810" y="320" width="60" height="30" as="geometry"/>
                </mxCell>
                <mxCell id="pkpLJFI0L02xDPb_ya9f-52" value="" style="edgeStyle=none;html=1;entryX=0.542;entryY=-0.011;entryDx=0;entryDy=0;entryPerimeter=0;" parent="1" target="pkpLJFI0L02xDPb_ya9f-55" edge="1">
                    <mxGeometry relative="1" as="geometry">
                        <Array as="points">
                            <mxPoint x="709.99" y="590"/>
                        </Array>
                        <mxPoint x="637.24" y="590" as="sourcePoint"/>
                    </mxGeometry>
                </mxCell>
                <mxCell id="pkpLJFI0L02xDPb_ya9f-53" style="edgeStyle=none;html=1;entryX=0.5;entryY=0;entryDx=0;entryDy=0;fontSize=12;" parent="1" target="pkpLJFI0L02xDPb_ya9f-58" edge="1">
                    <mxGeometry relative="1" as="geometry">
                        <Array as="points">
                            <mxPoint x="459.99" y="590"/>
                        </Array>
                        <mxPoint x="522.74" y="590" as="sourcePoint"/>
                    </mxGeometry>
                </mxCell>
                <mxCell id="pkpLJFI0L02xDPb_ya9f-54" style="edgeStyle=none;html=1;entryX=1;entryY=0.5;entryDx=0;entryDy=0;exitX=0.542;exitY=1.002;exitDx=0;exitDy=0;exitPerimeter=0;" parent="1" source="pkpLJFI0L02xDPb_ya9f-55" target="pkpLJFI0L02xDPb_ya9f-59" edge="1">
                    <mxGeometry relative="1" as="geometry">
                        <mxPoint x="642.74" y="839.9999999999998" as="targetPoint"/>
                        <Array as="points">
                            <mxPoint x="713.24" y="840"/>
                        </Array>
                    </mxGeometry>
                </mxCell>
                <mxCell id="pkpLJFI0L02xDPb_ya9f-55" value="implementar marca de agua de imagen a la imagen" style="whiteSpace=wrap;html=1;" parent="1" vertex="1">
                    <mxGeometry x="641.75" y="640" width="130" height="60" as="geometry"/>
                </mxCell>
                <mxCell id="pkpLJFI0L02xDPb_ya9f-56" value="" style="edgeStyle=none;html=1;entryX=0;entryY=0.5;entryDx=0;entryDy=0;exitX=0.5;exitY=1;exitDx=0;exitDy=0;" parent="1" source="pkpLJFI0L02xDPb_ya9f-58" target="pkpLJFI0L02xDPb_ya9f-59" edge="1">
                    <mxGeometry relative="1" as="geometry">
                        <mxPoint x="377.24" y="749.9999999999998" as="sourcePoint"/>
                        <mxPoint x="522.74" y="839.9999999999998" as="targetPoint"/>
                        <Array as="points">
                            <mxPoint x="459.99" y="840"/>
                        </Array>
                    </mxGeometry>
                </mxCell>
                <mxCell id="pkpLJFI0L02xDPb_ya9f-58" value="implementar marca&lt;br&gt;de agua a la imagen" style="whiteSpace=wrap;html=1;" parent="1" vertex="1">
                    <mxGeometry x="395.49" y="640" width="130" height="60" as="geometry"/>
                </mxCell>
                <mxCell id="pkpLJFI0L02xDPb_ya9f-67" style="edgeStyle=orthogonalEdgeStyle;rounded=0;orthogonalLoop=1;jettySize=auto;html=1;exitX=0.5;exitY=1;exitDx=0;exitDy=0;entryX=1;entryY=0;entryDx=0;entryDy=0;" parent="1" source="pkpLJFI0L02xDPb_ya9f-59" target="19" edge="1">
                    <mxGeometry relative="1" as="geometry"/>
                </mxCell>
                <mxCell id="pkpLJFI0L02xDPb_ya9f-59" value="&lt;b&gt;Imprimir&lt;br&gt;msj de imagen guardada y&lt;br&gt;de &quot;gracias&quot;&lt;br&gt;&lt;/b&gt;" style="shape=parallelogram;perimeter=parallelogramPerimeter;whiteSpace=wrap;html=1;fixedSize=1;fontSize=12;" parent="1" vertex="1">
                    <mxGeometry x="480" y="810" width="210.01" height="60" as="geometry"/>
                </mxCell>
                <mxCell id="pkpLJFI0L02xDPb_ya9f-64" value="Texto" style="text;html=1;strokeColor=none;fillColor=none;align=center;verticalAlign=middle;whiteSpace=wrap;rounded=0;" parent="1" vertex="1">
                    <mxGeometry x="465.49" y="570" width="60" height="30" as="geometry"/>
                </mxCell>
                <mxCell id="pkpLJFI0L02xDPb_ya9f-65" value="Imagen" style="text;html=1;strokeColor=none;fillColor=none;align=center;verticalAlign=middle;whiteSpace=wrap;rounded=0;" parent="1" vertex="1">
                    <mxGeometry x="640.86" y="570" width="60" height="30" as="geometry"/>
                </mxCell>
                <mxCell id="zJ3uY7xJTECUQeAfx7PG-47" value="Menu de opciones" style="shape=hexagon;perimeter=hexagonPerimeter2;whiteSpace=wrap;html=1;fixedSize=1;" parent="1" vertex="1">
                    <mxGeometry x="525.49" y="200" width="120" height="80" as="geometry"/>
                </mxCell>
            </root>
        </mxGraphModel>
    </diagram>
</mxfile>